<svg width="390" height="105" viewBox="0 0 390 105" fill="none" xmlns="http://www.w3.org/2000/svg">
<path d="M110.672 0.797852H118.391V104.999H110.672V0.797852Z" fill="#E9E9E9"/>
<path d="M28.8267 50.6655H66.5087V57.8107H28.8267V50.6655Z" fill="#E9E9E9"/>
<path d="M0 0.797852V105H7.71895V57.8108H7.72915V50.6649H7.71963V7.94237H87.7628V0.797852" fill="#E9E9E9"/>
<path d="M350.549 0.395508H289.038V104.598H296.757V65.7443H296.813V58.6011H296.758V7.54207H349.956C368.662 7.54207 381.428 16.1752 381.428 32.6983V32.9969C381.428 48.4766 368.364 58.6005 349.064 58.6005H324.719V65.7443H348.619C370.293 65.7443 389.148 54.4312 389.148 32.5496V32.2523C389.148 12.156 373.411 0.39619 350.548 0.39619" fill="#E9E9E9"/>
<path d="M244.128 58.6012L208.091 0H200.668L136.477 104.946H144.493L204.232 8.48586L235.37 58.6005" fill="#E9E9E9"/>
<path d="M255.986 77.8823H247.351L264.167 104.945H272.627" fill="#E9E9E9"/>
</svg>
