<svg width="511" height="105" viewBox="0 0 511 105" fill="none" xmlns="http://www.w3.org/2000/svg">
<path d="M52.0961 2.61308H42.0907V51.6663C42.0907 70.0896 35.6022 75.6303 19.1525 75.6303C5.363 75.5861 0 70.2707 0 63.3787C0 61.8014 0.585312 56.7121 5.63269 56.7121C10.635 56.7121 10.9506 60.0905 10.9506 65.5862C10.9506 67.8829 11.8974 72.3872 17.8007 72.3872C27.1748 72.3872 31.3655 68.1083 31.3655 52.9732V2.61308H21.7217V0H52.0961V2.61308ZM54.1243 63.9187C52.4568 63.9187 51.0148 64.4587 49.8885 65.6304C48.717 66.8013 48.1309 68.1976 48.1309 69.8642C48.1309 71.5309 48.717 72.9271 49.8885 74.0088C51.0599 75.1797 52.4568 75.7205 54.1243 75.7205C55.7917 75.7205 57.1886 75.1805 58.406 74.0088C59.5774 72.9271 60.1627 71.5309 60.1627 69.8642C60.1627 68.1525 59.5774 66.8013 58.406 65.6304C57.2345 64.4595 55.8359 63.9187 54.1243 63.9187ZM119.244 63.9187C117.577 63.9187 116.18 64.4587 115.008 65.6304C113.837 66.8022 113.295 68.1976 113.295 69.8642C113.295 71.5309 113.836 72.9271 115.008 74.0088C116.225 75.1797 117.622 75.7205 119.244 75.7205C120.912 75.7205 122.354 75.1805 123.525 74.0088C124.697 72.9271 125.283 71.5309 125.283 69.8642C125.283 68.1525 124.697 66.8013 123.525 65.6304C122.354 64.4595 120.912 63.9187 119.244 63.9187ZM100.361 0C123.66 0 127.626 8.7831 127.626 21.3059C127.626 33.6936 121.181 42.7471 98.1529 42.7471L90.2216 42.7922V61.4851C90.2216 63.7827 90.4921 64.9093 91.0331 66.1696C91.6185 67.6559 92.8809 68.7826 94.773 69.5479C96.1248 70.0437 98.1988 70.3141 100.902 70.4034V73.7375H68.9057V70.4034C71.6093 70.3141 73.6374 70.0428 74.9892 69.4578C76.7919 68.6917 78.0085 67.5658 78.5504 66.0794C79.0455 64.7733 79.316 64.548 79.316 60.0438V2.61223H70.5731V0.0442402L100.361 0ZM96.26 39.9104C110.321 39.9104 117.305 33.8296 117.305 21.9377C117.305 10.0909 113.429 2.8384 95.6739 2.8384L90.1765 2.9277V39.9546H96.26M219.11 65.9008C218.704 64.5947 218.478 62.9723 218.478 60.9009V2.61308H226.184V0H207.392C207.165 0.676009 184.768 56.3516 184.768 56.3516C184.719 56.4415 184.647 56.5176 184.561 56.5727C184.474 56.6279 184.375 56.6603 184.272 56.6671C184.002 56.6671 183.821 56.5318 183.732 56.3516C183.732 56.3516 159.937 0.676009 159.667 0H138.802V2.56718H147.455V58.6033C147.455 58.6033 147.275 63.7835 147.275 63.8286C147.14 65.1798 146.689 66.3966 146.012 67.3872C145.292 68.4238 144.165 69.2341 142.678 69.7749C141.686 70.0904 140.199 70.3149 138.397 70.36V73.6933H159.622V70.36C157.866 70.2707 157.099 70.0904 156.062 69.7749C154.53 69.2792 153.403 68.5131 152.637 67.4323C151.961 66.4408 151.51 65.2248 151.375 63.7835C151.375 63.7835 151.149 58.6033 151.149 58.5582V10.3146H152.366C152.366 10.3146 179.225 73.0173 179.541 73.7384H181.793L207.256 11.0356H207.887V60.9C207.887 63.0624 207.661 64.7741 207.256 66.0803C206.76 67.6117 205.678 68.7384 204.101 69.5037C202.93 70.0437 201.172 70.3149 198.829 70.4042V73.7384H227.852V70.4042C225.508 70.2698 223.705 69.9994 222.489 69.4586C220.687 68.604 219.605 67.4323 219.11 65.9008ZM258.136 19.7303C272.467 19.7303 283.102 29.5049 283.102 47.4324C283.102 70.4501 266.518 75.8999 257.82 75.8999C253.404 75.8999 232.989 74.1882 232.989 47.9273C232.945 30.0006 242.679 19.7303 258.136 19.7303ZM257.956 72.6576C268.367 72.6576 271.566 66.1712 271.566 47.2972C271.566 34.1893 271.521 23.0177 257.956 23.0177C245.428 23.0177 244.527 33.8288 244.527 48.2428C244.527 66.8464 246.284 72.6576 257.956 72.6576ZM323.617 20.5406C314.379 20.5406 311.179 25.9913 308.609 31.5771C308.609 31.5771 307.933 31.5321 307.888 31.5321C307.843 31.5771 306.041 20.9913 306.041 20.9913H288.465V23.7846H298.109V60.0905C298.109 63.6934 297.929 66.4867 296.982 68.0181C295.901 69.7749 293.692 70.451 289.997 70.451H288.419V73.7842H318.478V70.451H316.856C312.936 70.451 310.908 69.5955 309.871 67.883C308.925 66.3974 308.475 63.8294 308.475 60.0905V41.2616C308.475 34.9104 313.567 27.6129 319.335 27.6129C325.373 27.6129 325.554 36.2616 332.044 33.1545C336.64 30.9912 335.604 20.5406 323.617 20.5406ZM443.266 68.3328C445.159 68.3328 447.457 66.3507 447.952 62.6126H449.755C449.259 71.1712 445.068 74.5946 438.083 74.5946C431.864 74.5946 428.439 70.1797 427.853 66.5309C424.203 70.4051 418.795 75.2706 410.232 75.2706C402.526 75.2706 396.533 69.3243 396.172 62.5675C395.136 45.27 417.894 43.424 427.492 42.5677V33.7387C427.492 30.5406 426.772 27.9734 425.375 26.0363C423.888 24.0091 421.228 23.0185 417.443 23.0185C414.198 23.0185 411.81 23.8297 410.278 25.4054C408.835 26.9369 408.205 28.6035 407.755 31.487C407.123 35.4053 405.456 36.9368 402.482 36.9368C401.175 36.9368 400.138 36.5762 399.193 35.7659C398.291 35.0006 397.841 33.8739 397.841 32.2523C397.841 28.7838 399.193 26.396 402.618 23.7846C406.133 21.0823 411.631 19.7311 419.067 19.7311C426.818 19.7311 432.181 21.1724 434.929 23.9649C437.724 26.7574 438.491 30.0006 438.491 34.7302V56.8014L438.671 63.559C439.03 66.5768 440.021 68.3328 443.266 68.3328ZM427.538 45.8108C420.146 45.8108 406.717 50.7207 406.717 60.5403C406.717 63.6032 407.799 69.7291 415.189 69.7291C418.073 69.7291 421.993 68.0624 427.132 63.3787L427.357 63.1526C427.538 63.0174 427.538 62.9272 427.538 62.7478V45.8108ZM504.646 68.0181C503.339 66.3974 503.068 62.8379 503.068 60.1355V36.2624C503.068 32.7939 502.618 29.8662 501.311 27.4334C500.004 25.0908 498.157 23.2897 495.858 22.1188C493.514 20.9479 490.856 20.3621 487.927 20.3621C477.381 20.3621 472.784 26.4436 470.712 30.5422H469.9L468.053 20.993H451.693V23.7404H459.895V60.0921C459.895 62.8855 459.67 64.9119 459.264 66.2639C458.814 67.8846 457.778 68.9662 456.245 69.6423C455.253 70.047 453.721 70.3183 451.739 70.4076V73.7417H477.697V70.4076C475.083 70.1822 473.325 69.507 472.379 68.1559C471.342 66.7137 470.892 64.2818 470.892 60.678V46.7598C470.892 40.9486 470.846 35.3177 472.829 31.8041C474.993 28.021 478.913 25.9036 483.284 25.9036C487.25 25.9036 489.369 27.1655 490.63 29.6876C492.028 32.5252 492.343 37.7956 492.343 41.9843V59.2367C492.343 62.1193 492.253 64.1916 492.073 65.5428C491.757 67.1201 491.397 68.4263 490.135 69.2366C489.234 69.8676 487.837 70.2732 485.989 70.4076V73.6958H511V70.36C507.8 70.2248 505.908 69.6848 504.646 68.0181ZM387.295 17.6129C390.133 16.7124 392.477 17.3876 393.243 20.5865C393.604 22.118 393.289 23.9649 392.387 25.5857C391.531 27.2073 390.043 28.379 387.7 29.0993C385.672 29.7753 383.509 29.7753 381.121 29.2344C382.248 31.6672 383.193 35.0907 383.193 39.0992C383.193 53.0625 372.513 57.2521 361.112 59.0089C349.485 60.8099 346.511 62.207 346.511 65.8549C346.511 68.3328 348.043 69.7741 356.109 69.7741C372.784 70.5853 380.22 69.6389 385.448 76.8013C387.069 79.098 387.881 82.1618 387.881 85.9908C387.881 88.7833 387.16 91.711 385.583 94.5494C384.096 97.3861 381.301 99.864 377.29 101.891C373.279 103.918 367.691 105 360.841 105C355.658 105 351.918 104.594 346.24 102.883C342.544 101.802 337.677 98.8291 337.677 92.5681C337.677 90.6753 337.993 89.0996 338.849 87.7484C339.796 86.3063 341.733 85.4508 343.355 85.7212C346.239 86.217 347.095 88.8292 346.6 91.3062C346.015 93.739 346.555 97.1625 349.349 98.8734C353.134 101.216 357.281 101.756 362.373 101.756C368.322 101.756 373.099 100.72 376.615 98.7832C380.4 96.6659 382.248 93.8275 382.248 90.3148C382.248 87.7476 381.346 85.7655 379.589 84.4143C377.921 83.1983 375.623 82.3871 372.784 82.0274C370.124 81.7119 366.024 81.4874 360.301 81.4415C353.721 81.3072 348.494 80.541 344.753 79.0096C341.373 77.6133 338.76 75.1354 338.76 70.5411C338.76 62.9289 345.879 60.5862 353.902 58.9646C354.398 58.8753 354.398 58.1993 353.812 58.1092C344.393 56.1271 340.112 50.7215 340.112 39.6408C340.112 30.1366 346.557 19.7319 361.203 19.7319C370.261 19.7319 375.444 22.7949 378.148 25.2727C378.959 25.9028 380.807 25.8578 381.888 25.5423C382.969 25.1817 383.781 23.9658 384.186 21.8042C384.726 19.4599 385.716 18.1087 387.295 17.6129ZM361.472 56.0361C367.871 56.0361 372.468 54.0991 372.468 39.4597C372.468 29.2345 369.989 22.5679 361.472 22.5679C354.171 22.5679 350.746 29.8654 350.746 39.64C350.701 53.5582 354.621 56.0361 361.472 56.0361Z" fill="#E9E9E9"/>
</svg>
