<svg width="488" height="105" viewBox="0 0 488 105" fill="none" xmlns="http://www.w3.org/2000/svg">
<path d="M482.113 1.70648H471.089C467.94 1.70648 466.044 3.57886 466.044 6.67354V38.7986C466.044 50.5916 459.587 57.2651 450.604 57.2651C441.154 57.2651 435.798 51.2146 435.798 39.5774V6.67015C435.798 3.5687 433.895 1.70309 430.753 1.70309H419.728C416.579 1.70309 414.683 3.57547 414.683 6.67015V41.1247C414.683 63.0075 426.189 75.4201 443.517 75.4201C453.912 75.4201 461.95 72.0072 467.618 65.0221L468.569 69.3696C469.203 72.1798 471.092 73.7136 474.085 73.7136H482.116C485.272 73.7136 487.161 71.8379 487.161 68.7466V6.67354C487.154 3.57209 485.265 1.70648 482.113 1.70648ZM405.233 54.7833H385.385C378.455 54.7833 374.828 51.2146 374.828 44.3853V6.67015C374.828 3.5687 372.926 1.70309 369.787 1.70309H358.444C355.295 1.70309 353.406 3.57547 353.406 6.67015V47.0195C353.406 63.6238 363.641 73.7272 380.52 73.7272H405.254C408.403 73.7272 410.299 71.8548 410.299 68.7601V59.7436C410.278 56.6421 408.382 54.7833 405.233 54.7833ZM84.1656 6.51779C83.8473 3.2809 82.1137 1.70648 78.9581 1.70648H70.6086C67.9337 1.70648 66.0444 2.78995 64.6258 5.12281L44.3004 38.9544L25.3971 5.12281C24.141 2.77641 22.0722 1.70309 19.4109 1.70309H10.4384C7.28277 1.70309 5.54921 3.2809 5.23094 6.51779L0.0370242 68.5942C-0.281247 72.0139 1.46586 73.717 4.7603 73.717H14.8468C17.9956 73.717 19.8883 72.1663 20.0441 68.9057L22.2517 34.1397L34.3798 55.6941C35.6428 58.0371 37.7115 59.1138 40.366 59.1138H47.3003C49.9785 59.1138 51.8678 58.1725 53.2831 55.6941L66.9959 32.5686L68.5669 68.8854C68.726 72.1663 70.4698 73.6967 73.6118 73.6967H84.4805C87.8088 73.6967 89.522 71.9936 89.2037 68.5773L84.1656 6.51779ZM338.749 1.70648H330.088C327.091 1.70648 325.043 3.2572 324.575 6.20967L324.101 9.77837C319.219 4.65895 312.122 0 300.309 0C280.458 0 265.807 15.365 265.807 37.556C265.807 59.2831 279.51 75.4235 299.046 75.4235C311.337 75.4235 319.371 70.3007 324.257 65.0255L325.046 69.373C325.52 72.1832 327.426 73.717 330.402 73.717H338.752C341.904 73.717 343.794 71.8413 343.794 68.75V6.67354C343.79 3.57209 341.897 1.70648 338.749 1.70648ZM304.907 57.2651C293.717 57.2651 286.63 49.6605 286.63 37.8641C286.63 25.9188 294.032 18.1584 304.907 18.1584C316.09 18.1584 323.177 25.763 323.177 37.5594C323.153 49.5047 315.752 57.2651 304.907 57.2651ZM253.205 1.70648H244.544C241.547 1.70648 239.499 3.2572 239.025 6.20967L238.551 9.77837C233.668 4.65895 226.582 0 214.765 0C194.917 0 180.28 14.4339 180.28 36.6249C180.28 57.7324 193.827 72.6302 213.36 72.6302C225.492 72.6302 232.741 67.6631 237.623 62.3879V65.9566C237.623 78.3692 230.533 86.2887 215.571 86.2887C209.432 86.2887 203.365 85.0123 197.765 82.5406C194.775 81.1354 192.408 81.7618 190.993 84.7075L187.526 91.5402C186.097 94.3505 186.574 96.663 189.259 98.2137C197.609 102.866 207.848 104.732 217.772 104.732C242.505 104.732 258.26 89.3665 258.26 67.9475V6.67354C258.246 3.57209 256.357 1.70648 253.205 1.70648ZM219.336 54.9356C208.464 54.9356 201.062 47.7982 201.062 36.7773C201.062 25.14 208.779 18.155 219.336 18.155C230.205 18.155 237.606 24.5204 237.606 36.4725C237.606 47.1752 229.893 54.9356 219.336 54.9356ZM167.661 1.70648H158.997C156 1.70648 153.955 3.2572 153.478 6.20967L153.004 9.77837C148.125 4.65895 141.038 0 129.221 0C109.37 0 94.7193 15.365 94.7193 37.556C94.7193 59.2831 108.425 75.4235 127.962 75.4235C140.246 75.4235 148.28 70.3007 153.169 65.0255L153.962 69.373C154.436 72.1832 156.339 73.717 159.318 73.717H167.664C170.82 73.717 172.709 71.8413 172.709 68.75V6.67354C172.703 3.57209 170.813 1.70648 167.661 1.70648ZM133.789 57.2651C122.605 57.2651 115.512 49.6605 115.512 37.8641C115.512 25.9188 122.917 18.1584 133.789 18.1584C144.976 18.1584 152.062 25.763 152.062 37.5594C152.062 49.5047 144.661 57.2651 133.789 57.2651Z" fill="#E9E9E9"/>
</svg>
