<svg width="256" height="105" viewBox="0 0 256 105" fill="none" xmlns="http://www.w3.org/2000/svg">
<path d="M164.156 84.3394C160.891 84.3394 157.795 83.4909 155.929 82.4303C155.844 82.3879 155.76 82.2606 155.76 82.1758V42.8909C155.76 42.7212 155.887 42.5939 156.056 42.5939H160C160.17 42.5939 160.297 42.7212 160.297 42.8909V56.3394C161.909 55.4909 163.859 55.0667 165.98 55.0667C172.595 55.0667 177.048 60.5394 177.048 69.1091C177.09 78.2303 172.595 84.3394 164.156 84.3394ZM164.835 57.8667C163.223 57.8667 161.781 58.2485 160.509 58.8424C160.382 58.8848 160.339 59.0121 160.339 59.1394V80.4788C160.339 80.6061 160.424 80.7333 160.509 80.7758C161.569 81.2 162.969 81.4121 164.326 81.4121C170.135 81.4121 172.468 76.4909 172.468 69.3636C172.468 62.2788 169.711 57.8667 164.835 57.8667ZM191.551 84.3394C184.766 84.3394 180.779 81.4121 180.779 75.7697C180.779 68.9394 187.48 66.3091 196.64 65.4182V63.6788C196.64 59.7758 194.519 58.0788 190.618 58.0788C188.285 58.0788 185.741 58.7576 183.833 59.7333C183.663 59.8182 183.494 59.7333 183.409 59.5636L182.518 57.3152C182.476 57.1455 182.518 56.9758 182.645 56.9333C184.978 55.7879 188.073 55.0242 190.999 55.0242C197.148 55.0242 200.923 57.9091 200.923 64.2303V82.2182C200.923 82.3455 200.88 82.4303 200.753 82.5152C198.548 83.5758 195.24 84.3394 191.551 84.3394ZM196.64 67.8364C189.43 68.6848 185.19 70.6788 185.19 75.6424C185.19 79.4606 187.565 81.6242 191.975 81.6242C193.671 81.6242 195.367 81.2849 196.47 80.7758C196.597 80.7334 196.64 80.6061 196.64 80.4788V67.8364ZM223.992 83.8303C223.822 83.8303 223.695 83.703 223.695 83.5333V64.3152C223.695 60.0727 221.956 57.9515 217.334 57.9515C215.468 57.9515 213.941 58.2485 212.542 58.8C212.415 58.8424 212.33 58.9697 212.33 59.097V83.5333C212.33 83.703 212.203 83.8303 212.033 83.8303H208.047C207.877 83.8303 207.75 83.703 207.75 83.5333V57.1879C207.75 57.0606 207.835 56.9333 207.92 56.8909C210.507 55.7455 213.899 54.9818 217.334 54.9818C224.967 54.9818 228.317 58.2909 228.317 64.2727V83.4909C228.317 83.6606 228.19 83.7879 228.02 83.7879H223.992V83.8303ZM250.962 83.8303C250.878 83.8303 250.793 83.7879 250.708 83.703L239.682 69.3636H239.597V83.4909C239.597 83.6606 239.47 83.7879 239.301 83.7879H235.399C235.23 83.7879 235.102 83.6606 235.102 83.4909V42.8485C235.102 42.6788 235.23 42.5515 235.399 42.5515H239.301C239.47 42.5515 239.597 42.6788 239.597 42.8485V68.7697H239.682L250.072 55.5758C250.114 55.4909 250.199 55.4485 250.326 55.4485H254.609C254.864 55.4485 254.991 55.7455 254.864 55.9576L243.965 68.897L255.924 83.2788C256.094 83.4909 255.966 83.7879 255.67 83.7879H250.962V83.8303ZM66.6208 28C66.6208 10.6485 47.1986 0 33.2468 0C23.9173 0 18.1076 4.58182 18.1076 11.9212V16.6303H14.1638C7.29394 16.6303 0 23.9273 0 30.8424V83.5333C0 86.2485 2.20515 88.4546 4.91917 88.4546H17.726C17.8108 88.4546 17.8956 88.4546 17.938 88.4122C20.5672 88.2849 22.6451 86.1213 22.6451 83.491C22.6451 83.491 22.6451 32.6243 22.6451 21.1697H33.3316C39.1837 21.1697 43.9757 25.9637 43.9757 31.8182V83.491C43.9757 86.2061 46.1808 88.4122 48.8948 88.4122H61.7017C64.4157 88.4122 66.6208 86.2061 66.6208 83.491C66.6633 60.5819 66.6208 28 66.6208 28ZM5.8097 83.9151C5.1312 83.9151 4.57992 83.3636 4.57992 82.6849V30.8848C4.57992 26.5576 9.88075 21.2121 14.1638 21.2121H18.1076C18.1076 59.1818 18.1076 78.6121 18.1076 82.7273C18.1076 83.4061 17.5563 83.9576 16.8778 83.9576H5.8097V83.9151ZM62.0833 82.7273C62.0833 83.4061 61.532 83.9151 60.8535 83.9151H49.743C49.0645 83.9151 48.5132 83.3636 48.5132 82.6849V31.8606C48.5132 23.4606 41.6857 16.6303 33.2892 16.6303H22.6451V11.9212C22.6451 9.16364 24.0022 4.58182 33.2468 4.58182C51.1 4.58182 62.0409 18.2424 62.0409 28C62.0834 28 62.0833 59.8182 62.0833 82.7273ZM137.694 16.5455H124.888C122.174 16.5455 119.968 18.7515 119.968 21.4667C119.968 22.6121 119.968 71.1455 119.968 83.7879H109.324C103.472 83.7879 98.6802 78.9939 98.6802 73.1394V21.4667C98.6802 18.7515 96.4751 16.5455 93.7611 16.5455H80.9543C78.2402 16.5455 76.0351 18.7515 76.0351 21.4667C76.0351 43.9939 76.0351 77 76.0351 77C76.0351 94.3515 95.4573 105 109.409 105C118.739 105 124.548 100.418 124.548 93.0788V88.3697H128.492C135.362 88.3697 142.656 81.0727 142.656 74.1576V21.4667C142.614 18.7515 140.408 16.5455 137.694 16.5455ZM119.968 93.1212C119.968 95.8788 118.611 100.461 109.367 100.461C91.5135 100.461 80.5726 86.8 80.5726 77.0424C80.5726 77.0424 80.5302 45.3939 80.5726 22.3152C80.5726 21.6364 81.1239 21.1273 81.8024 21.1273H92.9129C93.5914 21.1273 94.1427 21.6788 94.1427 22.3576V73.2242C94.1427 81.6242 100.97 88.4546 109.367 88.4546H120.011L119.968 93.1212ZM138.076 74.1576C138.076 78.4849 132.775 83.8303 128.492 83.8303H124.548C124.548 57.3151 124.548 27.5758 124.548 22.3152C124.548 21.6364 125.1 21.1273 125.778 21.1273H133.581H136.889C137.567 21.1273 138.118 21.6788 138.118 22.3576V74.1576H138.076Z" fill="#E9E9E9"/>
</svg>
