<svg width="814" height="170" viewBox="0 0 814 170" fill="none" xmlns="http://www.w3.org/2000/svg">
<path d="M140.765 1.43459V168.804H123.199V91.5752H17.8061V168.804H0V1.43459H17.8061V76.0338H123.199V1.43459H140.765Z" fill="#BA84FF"/>
<path d="M243.866 170C231.674 170 220.686 167.29 210.901 161.871C201.115 156.292 193.415 148.64 187.801 138.917C182.186 129.194 179.379 118.195 179.379 105.921C179.379 93.6474 182.186 82.6488 187.801 72.9255C193.415 63.2021 201.115 55.6306 210.901 50.211C220.686 44.7914 231.674 42.0816 243.866 42.0816C256.057 42.0816 267.046 44.7914 276.831 50.211C286.617 55.6306 294.236 63.2021 299.69 72.9255C305.305 82.6488 308.112 93.6474 308.112 105.921C308.112 118.195 305.305 129.194 299.69 138.917C294.236 148.64 286.617 156.292 276.831 161.871C267.046 167.29 256.057 170 243.866 170ZM243.866 154.937C252.849 154.937 260.87 152.944 267.928 148.959C275.147 144.815 280.761 138.997 284.772 131.505C288.782 124.013 290.787 115.485 290.787 105.921C290.787 96.3572 288.782 87.8293 284.772 80.3376C280.761 72.8458 275.147 67.1074 267.928 63.1224C260.87 58.978 252.849 56.9058 243.866 56.9058C234.883 56.9058 226.782 58.978 219.563 63.1224C212.505 67.1074 206.89 72.8458 202.719 80.3376C198.709 87.8293 196.704 96.3572 196.704 105.921C196.704 115.485 198.709 124.013 202.719 131.505C206.89 138.997 212.505 144.815 219.563 148.959C226.782 152.944 234.883 154.937 243.866 154.937Z" fill="#BA84FF"/>
<path d="M538.137 43.038V112.616C538.137 131.266 533.645 145.532 524.662 155.415C515.679 165.138 502.444 170 484.959 170C473.89 170 464.586 167.928 457.047 163.783C449.668 159.48 443.973 152.705 439.963 143.46C435.952 152.546 430.257 159.24 422.878 163.544C415.499 167.848 406.195 170 394.966 170C377.481 170 364.246 165.138 355.263 155.415C346.28 145.532 341.788 131.266 341.788 112.616V43.038H358.872V111.181C358.872 126.006 361.76 137.004 367.535 144.177C373.31 151.191 382.454 154.698 394.966 154.698C407.318 154.698 416.462 151.111 422.397 143.938C428.493 136.765 431.541 125.687 431.541 110.703V43.038H448.625V110.703C448.625 125.687 451.593 136.765 457.528 143.938C463.463 151.111 472.687 154.698 485.2 154.698C497.391 154.698 506.375 151.191 512.149 144.177C518.085 137.004 521.052 126.006 521.052 111.181V43.038H538.137Z" fill="#BA84FF"/>
<path d="M686.383 153.502V168.804H568.237V156.61L638.259 88.4669C647.081 79.8593 653.017 72.4473 656.065 66.2307C659.273 59.8547 660.877 53.4787 660.877 47.1027C660.877 37.2199 657.428 29.5687 650.53 24.1491C643.793 18.5701 634.088 15.7806 621.415 15.7806C601.684 15.7806 586.364 21.9972 575.456 34.4304L563.184 23.91C569.761 16.2588 578.103 10.361 588.209 6.2166C598.476 2.0722 610.025 0 622.859 0C640.023 0 653.578 4.0647 663.524 12.1941C673.63 20.1641 678.683 31.1627 678.683 45.1899C678.683 53.7975 676.758 62.0863 672.908 70.0563C669.058 78.0262 661.759 87.1917 651.012 97.5527L593.743 153.502H686.383Z" fill="#BA84FF"/>
<path d="M752.16 118.594C752.16 112.058 753.203 106.32 755.288 101.378C757.534 96.4369 760.261 92.2128 763.469 88.706C766.677 85.1992 770.848 81.2142 775.982 76.7511C782.879 70.6939 787.932 65.4337 791.141 60.9705C794.509 56.3479 796.194 50.7689 796.194 44.2335C796.194 35.4665 792.745 28.4529 785.847 23.1927C778.949 17.7731 769.485 15.0633 757.453 15.0633C737.562 15.0633 722.242 21.519 711.494 34.4304L698.741 24.8664C712.377 8.28879 732.349 0 758.657 0C775.5 0 788.895 3.7459 798.841 11.2377C808.947 18.7295 814 28.8514 814 41.6034C814 48.1388 812.877 53.9569 810.631 59.0577C808.546 63.9991 805.899 68.2232 802.691 71.7299C799.643 75.2367 795.552 79.3014 790.419 83.924C783.521 90.1406 778.388 95.7196 775.019 100.661C771.65 105.443 769.966 111.421 769.966 118.594H752.16ZM761.063 170C757.534 170 754.566 168.804 752.16 166.413C749.753 163.863 748.55 160.914 748.55 157.567C748.55 154.06 749.753 151.191 752.16 148.959C754.566 146.568 757.534 145.373 761.063 145.373C764.752 145.373 767.8 146.568 770.206 148.959C772.613 151.191 773.816 154.06 773.816 157.567C773.816 160.914 772.533 163.863 769.966 166.413C767.56 168.804 764.592 170 761.063 170Z" fill="#944AFF"/>
</svg>
